<svg width="291" height="367" viewBox="0 0 291 367" fill="none" xmlns="http://www.w3.org/2000/svg">
<path d="M33 186.5C35.8 191.3 41.8333 194.167 44.5 195L240 225.5C241 225.5 247.6 223.9 266 217.5C284.4 211.1 289.667 197.5 290 191.5C291.5 178.5 290.375 176.5 290 175C287.5 165 282.5 157 281 154C274.5 141.5 274 136 272.5 128C271 120 270.5 112.5 270 108.5C268.5 95.5 262.5 89.5 260 86C252.5 78 245 77 239.5 75C224.708 70.5623 220.613 67.5833 215.228 63.6655L215 63.5C206 55 205 48.5 203 44C201 39.5 199.5 32 196 24C192.5 16 187 9 178.5 4.5C170 0 161.5 0 156.5 0.5C151.5 1 143 6.5 139 8C135 9.5 128 10 121.5 10C115 10.5 109.5 12.5 105.5 14.5C96 19.5 94 24.5 92 28C90.8 31.6 90.5 37.8333 90.5 40.5C90.5 52 90.0357 56 89.5 58.5C88 65.5 79.5 70.5 73.5 74C60 81.5 60 83.5 58 87.5C57 92 56.5 97 57 101.5C57.4 105.1 58.8333 111 59.5 113.5C60.5 119 59.5 122.5 58.5 125.5C57.8481 127.456 52.5 133 50 135.5C47.5 138 43 141.5 39 144.5C35 147.5 30.5 154.5 29.5 158.5C28.7 161.7 28.5 166.167 28.5 168C29 181 30.9583 183 33 186.5Z" fill="#4D1F0F"/>
<path d="M163 113C161.715 109.788 161.849 102.49 162.211 97.3239C162.335 95.545 160.945 94.0001 159.162 94.0001H134.743C133.947 94.0001 132.94 93.7368 132.556 94.4335C131.928 95.5716 131.255 98.6239 131 105.5C130.5 119 130 120.5 128 124C124.052 129.384 119.272 131.95 116.766 132.781C116.322 132.928 116 133.331 116 133.799C116 133.932 116.026 134.063 116.077 134.186L118.191 139.259C118.393 139.744 118.72 140.168 119.138 140.488L126.124 145.83C126.689 146.263 127.391 146.48 128.102 146.443L165.113 144.52C165.37 144.507 165.62 144.462 165.865 144.382C173.748 141.807 186.877 135.62 179 130.5C169 124 165 118 163 113Z" fill="#E56E56"/>
<path d="M85.5001 146C78.3001 151.2 68.5001 161.167 64.5001 165.5C60.0001 170 50.5 184 47.5 187.5C44.5 191 36.5 202.5 31.5 210.5C26.5 218.5 23.5 225 19 234C14.5 243 11.0001 254 10.5001 257C10.0882 259.471 14.0653 260.245 15.6939 262.149L36.1316 286.041C44.1262 295.387 48.5906 307.229 48.8853 319.524C49.0704 327.248 49.2898 334.557 49.5001 337.5C50.5001 344.5 53.5001 349 56.0001 351C58.5001 353 65.0001 357 70.5001 358.5C76.0001 360 94.5001 363.5 102 364.5C109.5 365.5 129.5 367 143 366.5C156.5 366 165.5 365 172 364C178.5 363 201.5 359 216 354C230.5 349 235.5 342.5 236 340.5C236.5 337.5 235.5 321.5 235.5 318C235.5 304.378 243.94 292.213 257.373 289.952C271.873 287.511 285.5 284.496 285.5 282C285.5 277 284 271.5 283 265.5C282 259.5 281 258 278 248C275 238 270 226 263.5 213.5C257 201 255 198 250.5 190.5C246 183 241.5 175.5 236 169C230.5 162.5 226 157 216 147.5C208.557 140.429 201.945 136.682 195.545 133.785C191.231 131.832 186.668 129.945 181.947 130.303C178.301 130.579 176.322 132.008 175 133C173 134.5 164 140 161 141C158 142 151 144 137 142C123 140 119 132 118.5 132H115C114 132 106 134 102 136C98.0001 138 94.5001 139.5 85.5001 146Z" fill="#F6BD2F"/>
<path d="M181 184.5C184.6 185.7 184.167 189 183.5 190.5C177.833 193.5 166.4 199.5 166 199.5H123C122.2 199.5 117.667 195.167 115.5 193L116 186L129.5 178.5C145.167 180 177.4 183.3 181 184.5Z" fill="#BECDB3"/>
<path d="M147.656 182.713C146.407 191.341 148.871 195.553 150.259 196.58L138.807 195.553L124.232 192.471C120.588 198.121 118.506 197.094 116.424 196.58C114.404 196.082 114.341 193.499 114.341 191.444C109.136 192.471 107.574 187.849 108.095 184.254C108.615 180.659 113.3 180.659 114.862 180.145C115.278 178.091 117.118 177.235 117.985 177.063C114.341 172.441 117.109 169.819 118.506 169.359C120.051 168.851 121.937 169.013 123.153 169.349C122.971 169.251 122.67 168.443 122.67 165.764C122.67 162.169 126.835 161.655 129.437 162.169C132.04 162.682 132.561 165.25 133.081 166.278C136.204 165.25 137.245 166.278 138.807 166.278C139.848 165.25 142.972 165.25 144.533 165.764C153.903 163.71 152.862 171.927 152.341 172.954C155.985 177.063 152.862 181.172 150.259 182.199C147.136 182.713 148.177 181.686 147.656 182.713Z" fill="#369C6C"/>
<path d="M147 182.5C146.2 187.3 147.667 192.167 148.5 194C149.3 196.4 152.167 198.667 153.5 199.5L177 199C177.167 199.5 178.2 198.3 181 189.5C183.8 180.7 177.5 174.833 174 173L177.5 168L173 169L172.5 166L170 168C169.5 167.5 168.3 166.2 167.5 165C167.5 166 165.5 170 165 171.5C159 170.5 155.5 171.5 153.5 172.5C151.5 173.5 148 176.5 147 182.5Z" fill="#C2272F"/>
<path d="M183.379 202.16C184.172 198.519 184.04 191.203 183.875 188C182.883 189.011 172.966 193.563 163.544 194.068C153.131 194.627 139.247 194.776 133.297 194.574C121.396 194.17 112.14 191.203 109 190.023V193.563V198.114C111.975 215.308 125.363 225.422 131.809 228.456C141.727 232.502 154.619 230.985 160.073 228.962C178.42 220.365 182.387 206.711 183.379 202.16Z" fill="#EBDBC2"/>
<path d="M194 212.5C194 215.3 197.333 222.667 199 226L200 233.5L197 237.5C196 239 192.7 241.6 187.5 240C181 238 170.5 230.5 167.5 228C164.5 225.5 159 218 158 215C157.5 212 159.5 212 160.5 212.5C162 213.5 163 215 163.5 215.5C164 216 166 219 166.5 218.5C166.5 218 166.5 217.5 166 216.5C165 214.5 161 210.5 160 209.5C159 208.5 158.5 206 159 204.5C159.5 203.5 162 205 163 206C164 207 165 208 167 209.5C167.5 209 167 208.5 166.5 207.5C166 206.5 164 204 163.5 202C163 200 164.5 199 166 199C167.5 199 168 200 170 201.5C169 200.5 169.5 198.5 170.5 198.5C171.5 198.5 172.5 199 173.5 200C174.5 201 176.5 203.5 177.5 205C182 211 184 212 185.5 212.5C186.5 212.5 188 210 187 208C186.2 206.4 184.333 204.667 183.5 204V201C183.5 200.5 185 200.5 186.5 200.5C188 200.5 189 202.5 191 204C193 205.5 194 209 194 212.5Z" fill="#E07155"/>
<path d="M114.5 233.5C110.5 236.7 105.167 239.5 103 240.5L90.5 224.5L93 217C95 208 96 207.091 97 206C101.4 201.2 106.167 200.333 108 200.5V204C105.6 204.8 103.667 208 103 209.5C103.833 209.333 105.7 208.9 106.5 208.5C111.5 207 112.5 202 114 199C116.5 196 118 197 118.5 198C119 199 118.5 201.5 118.5 203.5C121 199.5 122.5 198 123.5 198C124.5 198 126 198.5 126 201.5C126 204.5 123.5 208 122.5 210C123.333 209 125.6 206.7 128 205.5C129 205.5 129 206 129 207.5C129 209 128 211 127.5 212.5C130 212 129 216 128.5 217C128 218 126 220.5 124 223C122 225.5 119.5 229.5 114.5 233.5Z" fill="#E07155"/>
<path d="M40 227.5C33.627 231.483 25.5 238.167 22.5 241.5C19 245.5 10.9 255.3 6.5 262.5C1 271.5 0 283.5 0 289.5C0.5 306 6 309.5 10 313.5C17.5 319.5 27.5 316 31 315C34.5 314 42.5 309 51 303.5C59.5 298 71.5 287 79 280.5C86.5 274 97 262 102 254C107 246 107 237.5 107 235.5C107 233.5 105.5 229.5 99 222.5C92.5 215.5 89.5 214.5 81.5 214C74.3 214 64.1667 216.667 60 218C54 220 44 225 40 227.5Z" fill="#FDC94F"/>
<path d="M187.5 265C182.7 252.2 182.167 242 182.5 238.5C182.542 237.447 187.451 233.736 192.41 230.277C197.047 227.042 202.39 224.299 208 225C212 225.5 221.5 227.5 237 234C252.5 240.5 261 250 268.5 256.5C276 263 281.5 274.5 284 280C286.5 285.5 284 296 283 299.5C282 303 276.5 308.5 273.5 311C270.5 313.5 262.5 317.5 259 319C255.5 320.5 247 320.5 241 319C235 317.5 227 313 222.5 310C218 307 208 298 202.5 292C197 286 193.5 281 187.5 265Z" fill="#FDC94F"/>
<path d="M124.371 43.6787C119.266 49.6124 117.656 60.1726 117.5 65C117.5 82 122 95.5 129 103.5C132 106.5 133.5 108 137 110C143.5 114.5 148.286 111.5 149 111C154 108 157.5 105 162 98C164.284 93.8893 165.733 89.9873 166.634 86.8656C167.892 82.5021 166.475 78.0438 164.087 74.1812C160.728 68.7482 156.677 61.5097 154.5 57.5C148.5 48.5 142 44 134.5 41.5C129.58 40.0944 127.871 40.6646 126.769 41.4748C125.894 42.1186 125.08 42.8549 124.371 43.6787Z" fill="#EA7E5B"/>
<path d="M221 236C223.667 237.333 229.3 240.3 230.5 241.5M246.5 249.5C249.167 251.333 255.1 255.8 257.5 259M267.5 269C269.5 271.333 273.8 276.8 275 280M202 236C205.167 238.667 211.9 244.2 213.5 245M226.5 252.5C228.333 254 232.3 257.6 233.5 260M242.5 269C244.833 270.667 249.7 274.5 250.5 276.5M257.5 284.5C261.333 287.333 269.4 293.9 271 297.5M202 249.5C203.5 252.833 207.3 260.1 210.5 262.5M216.5 272C218.667 274.833 223.5 280.9 225.5 282.5M237.5 291C239.833 293.167 245.2 297.9 248 299.5M256 306C258.833 307.167 265.3 309.5 268.5 309.5M191.5 245C191.5 247.333 191.9 252.7 193.5 255.5M195 265C195.833 267.667 198.1 273.7 200.5 276.5M206 284.5C207.333 285.667 210.9 288.6 214.5 291M221 297.5C222 298.667 224.5 301.2 226.5 302M237.5 307.5C238.333 308.167 241.6 310 248 312M81 219C78.1667 220 72.1 222.3 70.5 223.5M62 227C59.1667 228.5 52.8 232 50 234M40.5 239C38.5 240.667 34 244.6 32 247M25 254.5C23.1667 255.5 19.1 258.3 17.5 261.5M12.5 269.5C12.1667 271.5 11.4 276.1 11 278.5M84 230C81.8333 231.333 77.1 234.3 75.5 235.5M65 241.5C62 243 55.7 246.5 54.5 248.5M44.5 257.5C43.1667 258.167 40.1 260.3 38.5 263.5M30.5 271C29.5 272.167 27 275.3 25 278.5M20.5 286C18.5 288 14.3 292.6 13.5 295M97 232C96 233.667 93.7 237.2 92.5 238M82.5 244C81.3333 245.667 78.3 249.7 75.5 252.5M68 259.5C66.5 261 62.9 264.3 60.5 265.5M51 271C50.5 273.833 49 279.8 47 281M35 290C32.8333 292.5 27.8 298 25 300M98.5 247C97.5 249.833 94.6 256.1 91 258.5M81 271C79.5 273 75.8 277.6 73 280M62 290C59.6667 291.833 54.2 295.7 51 296.5M37.5 307.5C35.6667 308.5 31.3 310.6 28.5 311" stroke="#F9BC2E" stroke-width="2" stroke-linecap="round"/>
<path d="M222 161.5C222.667 163.167 224.3 166.9 225.5 168.5M244 193C245.333 197 248.6 205.4 251 207M264 227C265.333 228.667 268.4 232.9 270 236.5M192 146C193.333 148 196.4 152.4 198 154M208.5 163.5C209.5 164.667 211.8 167.5 213 169.5M223 185C224 187.167 226.3 191.9 227.5 193.5M235 207C236.333 210.167 239.6 217 242 219M249 228.5C250.167 229.833 252.7 232.9 253.5 234.5M175.5 149.5C176 150.833 177.3 153.7 178.5 154.5M186.5 162.5C186.667 163.667 187.6 166.9 190 170.5M197 186.5C198 188.167 200.3 192.3 201.5 195.5M206.5 207C207.333 209.167 209.4 213.9 211 215.5M157 149.5C158 151.5 159.7 156.7 158.5 161.5M159.5 236.5C159.833 240 160.5 247.7 160.5 250.5M176.5 249.5C176.833 253.833 177.9 263.3 179.5 266.5M181.5 282.5C182.167 285 183.4 290.5 183 292.5M184 312C184.667 314.667 185.9 320.7 185.5 323.5M188 336.5C188.5 340 189.2 347.7 188 350.5M202.5 300.5C203.167 302.5 204.6 307.4 205 311M206 325C206.333 328.833 206.8 337.6 206 342M221.5 314C222 317 222.7 324 221.5 328M159.5 268.5C159.833 270.667 160.3 276.1 159.5 280.5M160.5 296C160.5 300.833 160.7 311 161.5 313M162.5 328C162.167 331 161.7 337.5 162.5 339.5M165.5 353C165.5 355 165.4 359.2 165 360M134 149.5C134.167 151.167 134.4 155.1 134 157.5M137.5 248.5C137.167 251.833 136.7 259 137.5 261M137.5 276C136.833 278.167 135.7 283.6 136.5 288M135.5 306.5C136.167 310.667 137.3 319.6 136.5 322M135.5 338.5C136 343 137.3 352.8 138.5 356M110.5 143C108.167 143.833 102.7 146.6 99.5 151M88 161.5C86.3333 163.667 82.5 168.5 80.5 170.5M73 179.5C71.1667 182 67.4 187.5 67 189.5M59.5 204C56.8333 205.5 51.2 209.2 50 212M110.5 158.5C109 161 105.7 166.9 104.5 170.5M97.5 186.5C97 188.667 95.7 193.4 94.5 195M117.5 239C116.667 241.5 115.1 246.9 115.5 248.5M115.5 266.5C115.167 268.167 114.7 272.6 115.5 277M114.5 290.5C114.167 294.333 113.7 302.9 114.5 306.5M114.5 323.5C114.167 326.667 113.7 333.9 114.5 337.5M115.5 352C115.167 353.333 114.7 356.4 115.5 358M101.5 276C101.833 280.167 102.3 289.1 101.5 291.5M98 308C97.6667 311.333 97 318.4 97 320M95.5 336C94.8333 340 93.7 348.5 94.5 350.5M81 286.5C80.6667 290 80.2 298.2 81 303M75.5 320C75.5 321.833 75.6 326.1 76 328.5M60 306.5C59.6667 310 59.2 317.8 60 321" stroke="#FDC94F" stroke-width="2" stroke-linecap="round"/>
<path d="M140 75.5C140.333 76.3333 140.8 78.3 140 79.5C139 81 137 84 138 86C139 88 141 88 142.5 87.5M135.5 96C138.5 98 145.4 100.3 149 93.5" stroke="#460000" stroke-width="1.5" stroke-linecap="round"/>
<path d="M146 71.5C147.333 73.5 150.7 76.2 153.5 71" stroke="#460000" stroke-width="1.5" stroke-linecap="round"/>
<path d="M146.5 64C147.667 62.6667 151 60.8 155 64M123.5 66C124.667 64.3333 128.1 61.7 132.5 64.5M124.5 73C126.167 75.1667 130.4 78.1 134 72.5" stroke="#460000" stroke-width="1.5" stroke-linecap="round"/>
</svg>
